<svg id="Layer_1" data-name="Layer 1" xmlns="http://www.w3.org/2000/svg" xmlns:xlink="http://www.w3.org/1999/xlink" viewBox="0 0 76 58"><defs><style>.cls-1{fill:none;}.cls-2{clip-path:url(#clip-path);}.cls-3{fill:#1a5f8b;}.cls-4{fill:#fff;}.cls-5{fill:#2980b9;}</style><clipPath id="clip-path"><rect class="cls-1" x="3" y="3.08" width="69.1" height="51.92"/></clipPath></defs><title>2017_07_17 Vetores MOOC Nutrir (B)</title><g class="cls-2"><path class="cls-3" d="M72.1,43.07a2.43,2.43,0,0,1-2.34,2.51H65.22V55L54.1,45.58h-29a2.43,2.43,0,0,1-2.34-2.51V14.58a2.43,2.43,0,0,1,2.34-2.51H69.76a2.43,2.43,0,0,1,2.34,2.51Z"/><path class="cls-4" d="M3,34.09A2.43,2.43,0,0,0,5.34,36.6H9.88V46L21,36.6H50a2.43,2.43,0,0,0,2.34-2.51V5.59A2.43,2.43,0,0,0,50,3.08H5.34A2.43,2.43,0,0,0,3,5.59Z"/></g><rect class="cls-5" x="10.39" y="12.24" width="34.54" height="2.15"/><rect class="cls-5" x="10.39" y="19.07" width="34.54" height="2.15"/><rect class="cls-5" x="10.39" y="25.89" width="26.89" height="2.16"/></svg>