<svg id="Layer_1" data-name="Layer 1" xmlns="http://www.w3.org/2000/svg" viewBox="0 0 160 62"><defs><style>.cls-1{fill:#00529b;}</style></defs><title>2017_07_17 Vetores MOOC Nutrir (B)</title><path class="cls-1" d="M79,6.73h8.27V8.79H81.77V12h5.15v2.13H81.77v5.47H79Z"/><path class="cls-1" d="M91,10.59v5.34c0,.78,0,2,1.4,2,1.69,0,1.69-1.26,1.69-2.79V10.59h2.7V16.5c0,1.93.05,2.17.05,2.4s0,.41.07.66H94.4l-.09-1.19a2.94,2.94,0,0,1-2.65,1.42A3.41,3.41,0,0,1,89,18.57a4.13,4.13,0,0,1-.59-2.41V10.59Z"/><path class="cls-1" d="M99.35,12.18s0-1-.05-1.63h2.52l.07,1.35a3.1,3.1,0,0,1,2.91-1.56A2.73,2.73,0,0,1,107.54,12a7.43,7.43,0,0,1,.25,2.68v4.85H105.1V14a2.14,2.14,0,0,0-.14-1,1.37,1.37,0,0,0-1.28-.76,1.63,1.63,0,0,0-1.37.69A2.45,2.45,0,0,0,102,14.3v5.26H99.35Z"/><path class="cls-1" d="M116.09,6.73h2.65V18.1c0,.53,0,1.12.07,1.46h-2.66l-.07-1.3a2.41,2.41,0,0,1-.91,1,3.14,3.14,0,0,1-1.74.46c-2.4,0-3.82-1.65-3.82-4.46,0-3,1.62-4.81,4-4.81a2.87,2.87,0,0,1,2.52,1.23Zm-2,11.29a1.9,1.9,0,0,0,1.67-1,4.77,4.77,0,0,0,.43-2.11c0-1.76-.76-2.72-2-2.72-1.76,0-2,2.11-2,3C112.27,16.69,112.77,18,114.08,18Z"/><path class="cls-1" d="M126.39,19.55a7.17,7.17,0,0,1-.09-1.23,3.47,3.47,0,0,1-4.92.73,2.78,2.78,0,0,1-.78-2,3,3,0,0,1,1.9-2.79,9.36,9.36,0,0,1,3.55-.5,3.5,3.5,0,0,0-.12-1.19,1.21,1.21,0,0,0-1.17-.75,1.2,1.2,0,0,0-1,.5,1.35,1.35,0,0,0-.2.8H121A2.51,2.51,0,0,1,122,11a4.69,4.69,0,0,1,2.72-.73,4.31,4.31,0,0,1,3.2,1.15,3.54,3.54,0,0,1,.62,2.2l0,3.6a10.84,10.84,0,0,0,.21,2.27Zm-3.23-2.77a1.24,1.24,0,0,0,1.28,1.28,1.49,1.49,0,0,0,1.12-.51,3.29,3.29,0,0,0,.5-2.22C124.36,15.18,123.16,15.72,123.16,16.78Z"/><path class="cls-1" d="M138.25,16.3a3.38,3.38,0,0,1-1.15,2.65,3.6,3.6,0,0,1-2.33.83l-.64.87a2.9,2.9,0,0,1,.64-.07,1.3,1.3,0,0,1,1.47,1.28c0,1.3-1.42,1.62-2.24,1.62a4.26,4.26,0,0,1-1.72-.39l.37-.75a3.48,3.48,0,0,0,1.24.32c.6,0,1-.28,1-.67a.71.71,0,0,0-.8-.66,1.61,1.61,0,0,0-.71.16l-.37-.37.94-1.35a3.61,3.61,0,0,1-2.47-1.17,5.15,5.15,0,0,1-1.14-3.53c0-4.08,3-4.65,4.19-4.65a3.36,3.36,0,0,1,3.66,3.36h-2.57c0-.32-.14-1.65-1.15-1.65-1.24,0-1.38,1.88-1.38,2.86a4.92,4.92,0,0,0,.66,2.75.91.91,0,0,0,.71.3c.28,0,1.1-.12,1.21-1.72Z"/><path class="cls-1" d="M145.13,19.55a7.17,7.17,0,0,1-.09-1.23,3.47,3.47,0,0,1-4.92.73,2.78,2.78,0,0,1-.78-2,3,3,0,0,1,1.9-2.79,9.36,9.36,0,0,1,3.55-.5,3.5,3.5,0,0,0-.12-1.19,1.21,1.21,0,0,0-1.17-.75,1.2,1.2,0,0,0-1,.5,1.35,1.35,0,0,0-.2.8h-2.57a2.51,2.51,0,0,1,1-2.11,4.69,4.69,0,0,1,2.72-.73,4.31,4.31,0,0,1,3.2,1.15,3.54,3.54,0,0,1,.62,2.2l0,3.6a10.84,10.84,0,0,0,.21,2.27ZM140.32,9a2.26,2.26,0,0,1,2.09-2.18,2.86,2.86,0,0,1,.89.2l1,.39a1.74,1.74,0,0,0,.6.11c.51,0,.75-.37.83-.82h.91a2.42,2.42,0,0,1-.71,1.65,1.75,1.75,0,0,1-1.28.51,2.67,2.67,0,0,1-.92-.2L143,8.4a3.06,3.06,0,0,0-.8-.18c-.3,0-.71.12-.94.8Zm1.58,7.76a1.24,1.24,0,0,0,1.28,1.28,1.49,1.49,0,0,0,1.12-.51,3.29,3.29,0,0,0,.5-2.22C143.11,15.18,141.9,15.72,141.9,16.78Z"/><path class="cls-1" d="M153.85,10.37c3.25,0,4.65,2.2,4.65,4.7s-1.46,4.79-4.7,4.79a4.33,4.33,0,0,1-4.58-4.72C149.22,13,150.32,10.37,153.85,10.37Zm0,7.67c1.15,0,1.94-.69,1.94-3.07,0-1.19-.23-2.84-2-2.84-1.92,0-1.94,2.22-1.94,3C151.91,17.17,152.59,18,153.88,18Z"/><path class="cls-1" d="M79.07,26.38h4l4.81,10.1V26.38h2.56V39.21H86.64l-5-10.65V39.21H79.07Z"/><path class="cls-1" d="M94.87,35.4c0,.59,0,2.4,1.83,2.4a1.47,1.47,0,0,0,1.56-1.24h2.4a3,3,0,0,1-.85,2,4.36,4.36,0,0,1-3.14,1,4.46,4.46,0,0,1-3.16-1.12,4.88,4.88,0,0,1-1.15-3.5,4.92,4.92,0,0,1,1.86-4.24,4.5,4.5,0,0,1,2.52-.75,3.85,3.85,0,0,1,3.62,2.17,6.65,6.65,0,0,1,.53,3.28Zm3.34-1.65c0-.41,0-2-1.56-2-1.15,0-1.63,1-1.69,2Z"/><path class="cls-1" d="M104.46,36.62A1.3,1.3,0,0,0,106,37.85c.94,0,1.38-.53,1.38-1.07s-.21-.73-1.24-1l-1.63-.44a2.59,2.59,0,0,1-2.27-2.49c0-1.74,1.6-2.81,3.92-2.81,1.85,0,3.34.85,3.41,2.65h-2.4a1.11,1.11,0,0,0-1.28-1.07c-.71,0-1.24.34-1.24.89s.44.73,1.22.94l1.62.44c1.63.44,2.4,1.28,2.4,2.5,0,1.54-1.33,3.09-4.12,3.09a4,4,0,0,1-3.07-1.1,2.56,2.56,0,0,1-.66-1.76Z"/><path class="cls-1" d="M116.78,39.09a8.14,8.14,0,0,1-2,.28c-2.65,0-2.65-1.67-2.65-2.41V32h-1.72V30.3h1.72V28.54l2.61-1V30.3h2.13V32H114.7v4c0,.82,0,1.33,1.19,1.33a6.62,6.62,0,0,0,.89-.05Z"/><path class="cls-1" d="M118.41,26.38H121V39.21h-2.63Z"/><path class="cls-1" d="M125.46,35.4c0,.59,0,2.4,1.83,2.4a1.47,1.47,0,0,0,1.56-1.24h2.4a3,3,0,0,1-.85,2,4.36,4.36,0,0,1-3.14,1,4.46,4.46,0,0,1-3.16-1.12,4.88,4.88,0,0,1-1.15-3.5,4.92,4.92,0,0,1,1.86-4.24,4.5,4.5,0,0,1,2.52-.75,3.85,3.85,0,0,1,3.62,2.17,6.65,6.65,0,0,1,.53,3.28Zm3.34-1.65c0-.41,0-2-1.56-2-1.15,0-1.63,1-1.69,2Zm-1.44-4.92h-1.42l1.47-2.57h2.38Z"/><path class="cls-1" d="M79,45H83.8a6.34,6.34,0,0,1,3.16.6,3.21,3.21,0,0,1,1.44,2.73,2.56,2.56,0,0,1-.75,1.92,3.47,3.47,0,0,1-1.46.87v0a3.07,3.07,0,0,1,2.72,3.12,3.3,3.3,0,0,1-1.88,3,8.24,8.24,0,0,1-3.23.51H79Zm2.63,5.22h1.92c.78,0,2.2,0,2.2-1.65s-1.35-1.6-2.25-1.6H81.63Zm0,5.54h1.86c1.26,0,2.68,0,2.68-1.72s-1.65-1.83-3-1.83H81.63Z"/><path class="cls-1" d="M90.79,51c0-.43-.07-1.72-.12-2.24h2.47l.05,1.72a2.7,2.7,0,0,1,3.05-1.74v2.36c-2.66-.25-2.82,1.12-2.82,2.24v4.42H90.79Z"/><path class="cls-1" d="M102.72,57.78a7.2,7.2,0,0,1-.09-1.23,3.47,3.47,0,0,1-4.92.73,2.78,2.78,0,0,1-.78-2,3,3,0,0,1,1.9-2.79,9.36,9.36,0,0,1,3.55-.5,3.5,3.5,0,0,0-.12-1.19,1.21,1.21,0,0,0-1.17-.75,1.2,1.2,0,0,0-1,.5,1.35,1.35,0,0,0-.2.8H97.33a2.51,2.51,0,0,1,1-2.11,4.69,4.69,0,0,1,2.72-.73,4.31,4.31,0,0,1,3.2,1.15,3.54,3.54,0,0,1,.62,2.2l0,3.6a10.85,10.85,0,0,0,.21,2.27ZM99.49,55a1.24,1.24,0,0,0,1.28,1.28,1.49,1.49,0,0,0,1.12-.51,3.29,3.29,0,0,0,.5-2.22C100.7,53.41,99.49,53.95,99.49,55Z"/><path class="cls-1" d="M109,55.19a1.3,1.3,0,0,0,1.49,1.22c.94,0,1.38-.53,1.38-1.07s-.21-.73-1.24-1L109,53.89a2.59,2.59,0,0,1-2.27-2.49c0-1.74,1.6-2.81,3.92-2.81,1.85,0,3.34.85,3.41,2.65h-2.4a1.11,1.11,0,0,0-1.28-1.07c-.71,0-1.24.34-1.24.89s.44.73,1.22.94l1.62.44c1.63.44,2.4,1.28,2.4,2.5,0,1.54-1.33,3.09-4.12,3.09a4,4,0,0,1-3.07-1.1,2.56,2.56,0,0,1-.66-1.76Z"/><path class="cls-1" d="M116,45h2.81v2.29H116Zm.09,3.83h2.63v9h-2.63Z"/><path class="cls-1" d="M121,44.95h2.63V57.78H121Z"/><rect class="cls-1" x="68.57" y="1.58" width="0.86" height="58.92"/><path class="cls-1" d="M12.08,46.25a1,1,0,0,0-.21.67v8.78h0s-4.8-8.56-5-9a1.66,1.66,0,0,0-.59-.62,1.8,1.8,0,0,0-1-.22H3.64a.93.93,0,0,0-.76.32,1,1,0,0,0-.21.67V59.31a1,1,0,0,0,.21.67.93.93,0,0,0,.76.32h.9A.93.93,0,0,0,5.3,60a1,1,0,0,0,.21-.67v-9h0s5,8.83,5.19,9.16a1.62,1.62,0,0,0,1.43.81h1.54a.93.93,0,0,0,.76-.32,1,1,0,0,0,.21-.67V48.09H34.88a.71.71,0,0,0,.47-.15.63.63,0,0,0,.18-.5v-.85a.63.63,0,0,0-.18-.5.71.71,0,0,0-.47-.15h-22a.93.93,0,0,0-.76.32ZM47.75,17a31.44,31.44,0,0,0-7.64-8c-1-.94-1.72-2-2.19-2.51-1.05-1.15-2.42-2.57-4.66-2.57a4.32,4.32,0,0,0-4.06,2.63c-.14.35-.24.77-.34.93-.21.35-1.17,2-1.57,2.63h1.79l-.87,1.64a11.71,11.71,0,0,1,2.71-.39c.86,0,1.48.2,1.75.74.5,1,.5,4,1.35,6.34a14.1,14.1,0,0,0,4.9,5.88.18.18,0,0,0,.27-.13.19.19,0,0,0-.07-.15A16.8,16.8,0,0,1,35,18c-.78-2.15-.66-5.16-1.34-6.5a2.41,2.41,0,0,0-2.31-1.12,8,8,0,0,0-1.69.21l.78-1.32H29.14c.28-.49.57-.95.71-1.22s.17-.52.33-.92A3.18,3.18,0,0,1,33.25,5c1.82,0,2.88,1.17,3.93,2.34a28,28,0,0,0,2.19,2.51A33,33,0,0,1,43,13a33.44,33.44,0,0,1,3.61,4.45A82.18,82.18,0,0,1,56.1,35l0,0c-4.9-3.32-9.14-6.47-12.56-10.34a39.14,39.14,0,0,1-6.37-10c-.13-.27-.23-.52-.35-.78,0-.11-.1-.14-.17-.14a.16.16,0,0,0-.16.16,5.37,5.37,0,0,0,.15.8c1,4.21,3.68,8,6.57,11.13A61.74,61.74,0,0,0,52,33.6l2.09,6a1.48,1.48,0,0,1,.11.44.31.31,0,0,1-.1.25.39.39,0,0,1-.31.09h-.63a.67.67,0,0,1-.47-.12.72.72,0,0,1-.21-.33c-.18-.56-1.29-3.7-1.5-4.34,0-.12-.11-.15-.18-.15a.16.16,0,0,0-.16.16,4.14,4.14,0,0,0,.08.43c.28,1.43.61,3,.74,3.64a4.31,4.31,0,0,1,.13.73.5.5,0,0,1-.18.42l-.65.66c-.15.15-.24.19-.37.19s-.28-.11-.34-.38c-.73-3.43-1.85-7.68-2.14-8.86-.07-.26-.12-.41-.27-.41s-.18.1-.18.21a2.29,2.29,0,0,0,0,.27c.17,1.22.88,5.65,1.64,9.7.14.7.4,1.08,1,1.08a1.1,1.1,0,0,0,.77-.34l1-1A1.37,1.37,0,0,1,53,41.52h1.43a.89.89,0,0,0,.69-.24.83.83,0,0,0,.25-.64,2.39,2.39,0,0,0-.18-.84c-.37-1-1.55-4.32-1.89-5.26l0,0c1.21.92,3,2.09,3.74,2.09.24,0,.39-.11.39-.48,0-1.78-3-9.09-9.71-19.16ZM20.9,49.57A5.15,5.15,0,0,0,15.66,55a5.26,5.26,0,0,0,5.26,5.54A5.44,5.44,0,0,0,25,58.81a2.86,2.86,0,0,0,.72-1.51.49.49,0,0,0-.11-.34.46.46,0,0,0-.4-.15H23.68a.75.75,0,0,0-.68.35,2.31,2.31,0,0,1-2.08,1,2.41,2.41,0,0,1-2.45-2.31H25.2a.88.88,0,0,0,.66-.21,1,1,0,0,0,.24-.79,5.66,5.66,0,0,0-1.23-3.59,4.94,4.94,0,0,0-4-1.7Zm10.37,0c-2.65,0-4.39,1.26-4.39,3.27a2.49,2.49,0,0,0,.69,1.75,4.35,4.35,0,0,0,2.22,1.16l2.21.56c.61.15,1.15.34,1.15.87,0,.82-.87,1.1-1.8,1.1A3,3,0,0,1,30,58a1.64,1.64,0,0,1-.67-.59c-.14-.22-.19-.39-.42-.51a1,1,0,0,0-.52-.09h-1.2a.55.55,0,0,0-.47.18.66.66,0,0,0-.12.42,2.27,2.27,0,0,0,.45,1.31,5.27,5.27,0,0,0,4.23,1.78c1.93,0,4.61-.8,4.61-3.39a2.72,2.72,0,0,0-.55-1.7,3.71,3.71,0,0,0-2.2-1.28L31,53.56c-.91-.23-1.33-.4-1.33-1s.48-1,1.6-1a2.21,2.21,0,0,1,1.64.55c.32.34.26.51.51.65a1.33,1.33,0,0,0,.6.08h1.09a.49.49,0,0,0,.4-.13.64.64,0,0,0,.13-.44,2.36,2.36,0,0,0-.91-1.64,5.31,5.31,0,0,0-3.46-1.11ZM14.57,5.73a1.3,1.3,0,1,1,2,1.59,2.68,2.68,0,0,1,.12.69,1.74,1.74,0,0,1-1.37,1.68A2.49,2.49,0,0,1,14.6,11c-.58.56-1.17.56-1.17.79s.09.2.33.2A2.12,2.12,0,0,0,16,10.36a2.48,2.48,0,0,0,1.64-2.2,1.23,1.23,0,0,0-.11-.57,1.94,1.94,0,0,0,.61-1.42,2.37,2.37,0,0,0-4.32-1.28,2.79,2.79,0,0,0-2.42,2.84h-.15a1.31,1.31,0,0,0-1.2-1A3,3,0,0,0,7.24,4.48a3.82,3.82,0,0,0-.57,0A2.28,2.28,0,0,0,5,3.86,2.38,2.38,0,0,0,2.66,6.24a2.19,2.19,0,0,0,1.09,1.9s0,.11,0,.15A3,3,0,0,0,6.62,11a.89.89,0,0,0,.72.71v.14H7.19c-2.37,0-3.37,1.14-3.37,1.9a2,2,0,0,0-1.16,1.8A2.38,2.38,0,0,0,5.11,18a2.17,2.17,0,0,0,1.27-.43,2.65,2.65,0,0,0,.87.14,2.24,2.24,0,0,0,1.93-1H9.4a2.3,2.3,0,0,0,2-1.3A1,1,0,0,0,11.5,15c0-.11,0-.19-.15-.19s-.15.13-.4.35a3.3,3.3,0,0,1-2.22.68,1.83,1.83,0,0,1-1.52.93,1.9,1.9,0,0,1-1.12-.35,1.28,1.28,0,0,1-1,.43,1.25,1.25,0,0,1-1.3-1.3,1.31,1.31,0,0,1,.83-1.21c.09-1,1.11-1.6,2.39-1.6l.5,0a1.84,1.84,0,0,1,1.31-.73A1.14,1.14,0,0,0,9.17,12a.22.22,0,0,0,.12-.2.21.21,0,0,0-.11-.19,1.32,1.32,0,0,0-.32-.09,2.23,2.23,0,0,1-1.7-1.41A2.51,2.51,0,0,1,4.63,7.61V7.52A1.3,1.3,0,0,1,5.11,5a1.32,1.32,0,0,1,1.05.53,2.44,2.44,0,0,1,.66-.08,2.44,2.44,0,0,1,2.46,2,2,2,0,0,1,1.81,1.8c0,.25.09.46.25.46s.21-.19.27-.45a2,2,0,0,1,.66-1.2,2.3,2.3,0,0,1,2.29-2.36ZM37.29,49.94h-.54a.71.71,0,0,0-.47.15.63.63,0,0,0-.18.5v.67a.63.63,0,0,0,.18.5.71.71,0,0,0,.47.16h.54v4.82a3.38,3.38,0,0,0,1,2.63,3.45,3.45,0,0,0,2.65.93h.82a.71.71,0,0,0,.47-.15.64.64,0,0,0,.2-.5V58.8a.64.64,0,0,0-.2-.5.71.71,0,0,0-.47-.15h-.12a1.54,1.54,0,0,1-1.12-.37,1.61,1.61,0,0,1-.44-1.23V51.92h1.76a.71.71,0,0,0,.47-.16.63.63,0,0,0,.18-.5v-.67a.63.63,0,0,0-.18-.5.71.71,0,0,0-.47-.15H40.06V46.79a.89.89,0,0,0-.19-.58.79.79,0,0,0-.65-.28H38.13a.79.79,0,0,0-.65.28.89.89,0,0,0-.19.58v3.15Zm5.91,9.5a.89.89,0,0,0,.19.58.79.79,0,0,0,.65.28h1.15a.79.79,0,0,0,.65-.28.89.89,0,0,0,.19-.58V46.79a.89.89,0,0,0-.19-.58.79.79,0,0,0-.65-.28H44a.79.79,0,0,0-.65.28.89.89,0,0,0-.19.58V59.44ZM17.38,13.31c-.45.65-.78,1-1.82,2.18a18.9,18.9,0,0,0-3.27,5.82c.19,0,.47,0,.78,0h.48l.14-.31a21.9,21.9,0,0,1,2.82-4.85l.43-.51a9.48,9.48,0,0,0,2.6-4.48,3.55,3.55,0,0,1,.81-1.87A2.23,2.23,0,0,1,22,8.65,3.21,3.21,0,0,1,23.31,9a2.29,2.29,0,0,0,1.15.24l.42,0-.68.91.92.65a3.32,3.32,0,0,0-2,2,.71.71,0,0,0-.06.24.14.14,0,0,0,.15.15c.13,0,.22-.1.39-.29.56-.68,1-1.14,3.07-1.79l-1.46-1.1,1.1-1.61h-1a3.53,3.53,0,0,1-1.66-.27,3.88,3.88,0,0,0-1.86-.51,3.22,3.22,0,0,0-2.23.88A4.86,4.86,0,0,0,18.36,11a7.07,7.07,0,0,1-1,2.35Zm2.22,6.58a26.61,26.61,0,0,0-1.88,2.75c.18.09.79.42,1,.53.67-1,1.59-2.24,2.2-3.18a3.69,3.69,0,0,0,.81-2.36c0-.19,0-.38,0-.56a2.56,2.56,0,0,1,.76-1.74,2.29,2.29,0,0,1,1.61-.63c.58,0,.92.16,1.42.16a2.27,2.27,0,0,0,.85-.17l.18-.07-.44,1.06,1,.43a5.79,5.79,0,0,0-2.13,4.32,8.29,8.29,0,0,0,.28,2.1.16.16,0,0,0,.16.14.17.17,0,0,0,.17-.16v-.22A11.63,11.63,0,0,1,26,19.7,6.67,6.67,0,0,1,28.81,16l-1.66-.73.72-1.75-.78.16a6,6,0,0,1-1.24.18,4.11,4.11,0,0,1-.95-.13,4,4,0,0,0-1-.13,3.16,3.16,0,0,0-2.15.83,4,4,0,0,0-1.15,3,3.62,3.62,0,0,1-1,2.46Zm24.8.59a.25.25,0,0,0-.2-.13.16.16,0,0,0-.17.16c0,.14.1.3.34.71a20.25,20.25,0,0,0,2.76,3.68,27.51,27.51,0,0,0,4.15,3.56l.47.33a.3.3,0,0,0,.17.08.18.18,0,0,0,.16-.17.18.18,0,0,0-.08-.15c-1.41-1.29-2.93-2.85-4.35-4.36-1.11-1.19-2.25-2.45-3.26-3.71ZM18.49,53.8a2.29,2.29,0,0,1,2.42-2.08,2.31,2.31,0,0,1,2.42,2.08ZM13.3,16.1a9.26,9.26,0,0,1,.75-1,16.49,16.49,0,0,0-2.49-3.52l-.44.43a24.36,24.36,0,0,1,2.18,4.1ZM6.22,7.37c-.09-.08-.11-.13-.11-.18A.14.14,0,0,1,6.27,7l.13,0a7.84,7.84,0,0,1,1.87,1A8.7,8.7,0,0,1,9.59,9.4l-.41.46-3-2.49Zm6.85,3.24-.52-.32a7.56,7.56,0,0,1,1.25-2.09,10.5,10.5,0,0,1,1-1c.09-.07.14-.13.22-.13a.16.16,0,0,1,.16.16.28.28,0,0,1-.06.14c-.59.92-1.74,2.74-2.1,3.27ZM6.52,15.1a.78.78,0,0,1-.25.08A.15.15,0,0,1,6.11,15c0-.07,0-.11.1-.16a7.38,7.38,0,0,1,3.67-1.54l.17.58L6.52,15.1ZM31.31,7.6a.86.86,0,0,1,.8-.95,1.38,1.38,0,0,1,.58.13c.23.11.39.26.39.43s-.17.35-.44.56a1.64,1.64,0,0,1-.9.43c-.34,0-.44-.32-.44-.59ZM21.5,10.42a.8.8,0,0,1,.73-.87,1,1,0,0,1,.65.26.42.42,0,0,1,.15.31c0,.23-.22.45-.48.61a1.28,1.28,0,0,1-.6.19c-.3,0-.45-.18-.45-.5Zm2.27,6a1,1,0,0,1,0-.33.62.62,0,0,1,.65-.49,1,1,0,0,1,.55.16.41.41,0,0,1,.2.35c0,.42-.7.9-1,.9s-.41-.24-.41-.59ZM56.5,48.09a.71.71,0,0,0,.47-.15.63.63,0,0,0,.18-.5v-.9a.87.87,0,0,0-.18-.65.64.64,0,0,0-.47-.18,5.29,5.29,0,0,0-.57,0l-7.71.76a.52.52,0,0,0-.53.57v.5a.48.48,0,0,0,.11.36.49.49,0,0,0,.39.14Zm-4.26,1.48A5.15,5.15,0,0,0,47,55a5.26,5.26,0,0,0,5.26,5.54,5.44,5.44,0,0,0,4.11-1.68,2.86,2.86,0,0,0,.72-1.51A.49.49,0,0,0,57,57a.46.46,0,0,0-.4-.15H55a.75.75,0,0,0-.68.35,2.31,2.31,0,0,1-2.08,1,2.41,2.41,0,0,1-2.45-2.31h6.75a.88.88,0,0,0,.66-.21,1,1,0,0,0,.24-.79,5.66,5.66,0,0,0-1.23-3.59,5,5,0,0,0-4-1.7ZM49.83,53.8a2.44,2.44,0,0,1,4.83,0ZM20,28.58c-1.3,0-1.88-.62-1.88-1.4,0-1.37,2.41-2.72,4.57-3.55l.56.72c-1.33.53-4,1.67-4,2.66,0,.35.2.6,1,.6a10.58,10.58,0,0,0,4.33-1.37.9.9,0,0,1,.35-.1.47.47,0,0,1,.43.25l.23.32A12.46,12.46,0,0,1,20,28.58Zm3.6.37a8.11,8.11,0,0,1-3.77,1.19,3.94,3.94,0,0,1-3.43-2c-.41-.62-.73-1.39-1.11-2.08a2,2,0,0,0-1.85-1.25,6.31,6.31,0,0,0-2.42.69l0,.18c.07.3.18.51.46.51a1.09,1.09,0,0,0,.32-.08,4,4,0,0,1,1.28-.27c.73,0,1.07.43,1.57,1.47l.18.39a10.39,10.39,0,0,1-2.56.26h-.42l.07.42a.48.48,0,0,0,.24.39,2.08,2.08,0,0,0,.86.1,10,10,0,0,0,2.37-.25A5.17,5.17,0,0,0,19.79,31a8.53,8.53,0,0,0,4-1.21l-.24-.88Zm1.31.44-.23-.89a16.16,16.16,0,0,1,6.71-2.21c.06,1.11,0,2.51.8,2.51s2.4-1.94,4.29-4.38c.17.16.45.34.71.53l-.48.63C34.81,28,33.24,30,31.94,30s-1.66-1.42-1.68-2.48a12.78,12.78,0,0,0-5.39,1.88ZM50.44,10c-.75,0-1-.42-1-1a11,11,0,0,1,1.25-4H49.55a56.34,56.34,0,0,1-4.3,6.52l.74.8A30.54,30.54,0,0,0,48.29,9h.15c0,.07,0,.14,0,.21a1.74,1.74,0,0,0,1.94,1.9,13.19,13.19,0,0,0,3.44-.85c1-.36,2-.73,2.47-.86V8.21c-.54.16-1.64.59-2.78,1a12,12,0,0,1-3.06.79ZM53,13.49c1.16-.49,3.24-1.32,4.44-1.76V10.55a84.21,84.21,0,0,0-9.51,4.2c.08.1.58.8.64.89a9,9,0,0,1,3.3-.83,16.67,16.67,0,0,0,4.41-.44v-.89a20.16,20.16,0,0,1-2.93.43c-.43,0-.56-.06-.56-.2s.06-.14.22-.21ZM27.8,19.81h4.94l-.37-.89H28.26l-.46.89ZM10.47,24.23a3.48,3.48,0,0,0,1.35-.34,3.28,3.28,0,0,1,1.29-.31,11.78,11.78,0,0,1,4.11,1.17.72.72,0,0,0,.25,0,.51.51,0,0,0,.48-.3l.17-.32a13.25,13.25,0,0,0-5.06-1.78,3.41,3.41,0,0,0-1.35.3,3.41,3.41,0,0,1-1.21.36c-1,0-3.48-1-3.48-1.9,0-1.1,4-1.53,4.42-1.53l.4-.9c-2.89,0-6.33,1-6.33,2.36,0,.39.22.58.22.94s-.22.81-.22,1.35A2.56,2.56,0,0,0,6,24.59c.27.42.59.69.59,1a8.87,8.87,0,0,0-.17,1.18c0,1.3.74,2.1,2.19,3.65l.29.31c-1.2.46-3.43,1.43-4,1.65-1.81.75-2.26,1.67-2.26,3.12,0,.56,0,1.2,0,1.77H3c.73,0,.81-.43.81-.85s0-.6,0-.95a1.91,1.91,0,0,1,1.33-2.1c.52-.23,3.08-1.28,5-2.09a4.18,4.18,0,0,1,1.66-.44,4.77,4.77,0,0,1,2.32.83,9.75,9.75,0,0,1,2.25,1.82l.82-.63a10.74,10.74,0,0,0-2.66-2.16A5.39,5.39,0,0,0,12,29.83a3.07,3.07,0,0,0-.8.12,3,3,0,0,1-.81.15,1.3,1.3,0,0,1-1.09-.59c-.16-.18-1.21-1.37-1.43-1.72a1.67,1.67,0,0,1-.3-.88,1.1,1.1,0,0,1,.13-.53A6.67,6.67,0,0,0,11,27.65l-.18-.92c-1.94-.51-4-2.22-4-3.32a1.41,1.41,0,0,1,.15-.6,6.67,6.67,0,0,0,3.48,1.42Zm13.91.17a5.73,5.73,0,0,1,3.49-1,17.32,17.32,0,0,1,2.08.18,13.71,13.71,0,0,0,1.82.14A8.85,8.85,0,0,0,35,23a6.21,6.21,0,0,0,.67.67,8.55,8.55,0,0,1-3.88,1.14,16.82,16.82,0,0,1-2.22-.18,14,14,0,0,0-1.82-.15,8,8,0,0,0-2.84.59l-.53-.7Zm17.95,3.45a14.83,14.83,0,0,1-5.91,6.56,7.23,7.23,0,0,1-4.13,1H27.77a12.83,12.83,0,0,0-3.42.42,8,8,0,0,1-2.25.44,4.44,4.44,0,0,1-3-1.23l1.06-.84-.53-.71c-.31.22-4.09,3-4.88,3.64l0,0a5.27,5.27,0,0,0,0-.54c0-2.13-1-2.64-2.48-3.24l-1,.6c2.06.69,2.57,1.24,2.57,2.77a2,2,0,0,1-1.06,2.07,4.42,4.42,0,0,1-2.16.55.68.68,0,0,0-.54.16.72.72,0,0,0-.17.53v.34h.24a5.63,5.63,0,0,0,3.81-1.24l4.28-3.34a5.65,5.65,0,0,0,4,1.66A9.53,9.53,0,0,0,24.75,37a10.67,10.67,0,0,1,3-.35H32.3A8.29,8.29,0,0,0,37,35.43a15.18,15.18,0,0,0,6.27-7c-.34-.21-.66-.41-.93-.59ZM35,31.49a11.65,11.65,0,0,1,4.77-4.89L39,26a9.59,9.59,0,0,0-2.82,2.18c-1.93,2-1.76,3.17-3.8,4a14.6,14.6,0,0,1-1.94.59c-.47-1.46-1.66-2.91-2.92-2.91a8.44,8.44,0,0,0-3,1,25.67,25.67,0,0,0-3,1.55l.53.72c.41-.22,1.58-.8,2.74-1.3A7.89,7.89,0,0,1,27.27,31c1,0,1.64,1.13,2,2a22.64,22.64,0,0,1-4.1.39.69.69,0,0,0-.51.14.87.87,0,0,0-.22.45l-.08.33h.7c3.61,0,7-.57,9.22-1.9a3.21,3.21,0,0,0,.93.15,6,6,0,0,0,3.36-1.31.75.75,0,0,0,.36-.65,2.88,2.88,0,0,0,0-.3l0-.38a5.51,5.51,0,0,1-3.32,1.6,1.68,1.68,0,0,1-.49-.06Z"/></svg>