<svg id="Layer_1" data-name="Layer 1" xmlns="http://www.w3.org/2000/svg" xmlns:xlink="http://www.w3.org/1999/xlink" viewBox="0 0 76 65"><defs><style>.cls-1{fill:none;}.cls-2{clip-path:url(#clip-path);}.cls-3{fill:#bd4f44;}.cls-4{fill:#f97563;}.cls-5{fill:#f7aaa3;}.cls-6{fill:#fff;}</style><clipPath id="clip-path"><rect class="cls-1" x="10" y="1.69" width="49.31" height="60.81"/></clipPath></defs><title>2017_07_17 Vetores MOOC Nutrir (B)</title><g class="cls-2"><path class="cls-3" d="M59.14,48.4s2,9.4-7.54,10.74l-23.26,3.3s-9.5,1.35-11.08-8.12L11.05,17S9.48,7.56,18.93,5.91L39.7,2.28S49.15.63,51.12,10Z"/><path class="cls-4" d="M56.78,46.25S58.41,55.71,49,57.34L27.52,61s-9.46,1.63-11.09-7.82L10.11,16.59S8.47,7.13,17.93,5.5L39.36,1.8S48.82.17,50.45,9.62Z"/><path class="cls-5" d="M24.43,21.22a4.51,4.51,0,1,1-5.21-3.68,4.51,4.51,0,0,1,5.21,3.68"/><path class="cls-6" d="M20.13,25a.91.91,0,0,1-.64-.13l-2.09-1.29a.92.92,0,1,1,1-1.56l1.31.82,1.74-2.72a.92.92,0,1,1,1.55,1L20.75,24.6a.91.91,0,0,1-.62.41"/><path class="cls-6" d="M47.67,14.32a.61.61,0,0,1-.5.7L26.05,18.67a.61.61,0,1,1-.21-1.2L47,13.82a.61.61,0,0,1,.7.49"/><path class="cls-6" d="M48.18,17.25a.61.61,0,0,1-.5.7L26.56,21.6a.61.61,0,1,1-.21-1.2l21.13-3.65a.61.61,0,0,1,.7.5"/><path class="cls-6" d="M38.94,21.86a.61.61,0,0,1-.5.7l-11.38,2a.61.61,0,1,1-.21-1.2l11.38-2a.61.61,0,0,1,.7.5"/><path class="cls-5" d="M26.65,34.07a4.51,4.51,0,1,1-5.21-3.68,4.51,4.51,0,0,1,5.21,3.68"/><path class="cls-6" d="M22.35,37.86a.9.9,0,0,1-.64-.12l-2.09-1.3a.92.92,0,0,1,1-1.56l1.31.82L23.65,33a.92.92,0,0,1,1.55,1L23,37.45a.92.92,0,0,1-.62.41"/><path class="cls-6" d="M49.89,27.17a.61.61,0,0,1-.5.7L28.27,31.52a.61.61,0,1,1-.21-1.2l21.13-3.65a.61.61,0,0,1,.7.49"/><path class="cls-6" d="M40.65,31.78a.61.61,0,0,1-.5.7l-11.38,2a.61.61,0,1,1-.21-1.2l11.38-2a.61.61,0,0,1,.7.5"/><path class="cls-5" d="M28.87,46.92a4.51,4.51,0,1,1-5.21-3.68,4.51,4.51,0,0,1,5.21,3.68"/><path class="cls-6" d="M24.57,50.71a.9.9,0,0,1-.64-.12l-2.09-1.3a.92.92,0,1,1,1-1.56l1.31.82,1.73-2.72a.92.92,0,0,1,1.55,1L25.19,50.3a.91.91,0,0,1-.62.41"/><path class="cls-6" d="M52.11,40a.61.61,0,0,1-.49.71L30.49,44.37a.61.61,0,1,1-.21-1.2l21.13-3.65a.61.61,0,0,1,.7.49"/><path class="cls-6" d="M52.62,42.95a.61.61,0,0,1-.49.7L31,47.3a.61.61,0,1,1-.21-1.2l21.13-3.65a.61.61,0,0,1,.7.5"/></g></svg>