<svg id="Layer_1" data-name="Layer 1" xmlns="http://www.w3.org/2000/svg" xmlns:xlink="http://www.w3.org/1999/xlink" viewBox="0 0 46 84"><defs><style>.cls-1{fill:none;}.cls-2{clip-path:url(#clip-path);}.cls-3{fill:#f1c30f;}.cls-4{fill:#f49b12;}.cls-5{fill:#f27321;}</style><clipPath id="clip-path"><rect class="cls-1" x="2" y="2.7" width="41.08" height="80.3"/></clipPath></defs><title>2017_07_17 Vetores MOOC Nutrir (B)</title><g class="cls-2"><path class="cls-3" d="M11.72,53.05l3.46,6.39C12,56.12,2,55,2,47.84V30.73a2.2,2.2,0,0,1,2.2-2.2s2.55-.41,4.39,3.7c1.66,3.73-.66,10.87,4.06,13.51,2.52,1.41.29,7.32-.93,7.32"/><path class="cls-3" d="M15.87,53.11H14.51a3.3,3.3,0,0,1-3.3-3.3V6a3.3,3.3,0,0,1,3.3-3.3h1.37A3.3,3.3,0,0,1,19.17,6V49.81a3.3,3.3,0,0,1-3.3,3.3"/><path class="cls-3" d="M23.84,56.12H22.48a3.3,3.3,0,0,1-3.3-3.3V27.07a3.3,3.3,0,0,1,3.3-3.3h1.37a3.3,3.3,0,0,1,3.3,3.3V52.81a3.3,3.3,0,0,1-3.3,3.3"/><path class="cls-3" d="M31.81,56.12H30.45a3.31,3.31,0,0,1-3.3-3.3V27.07a3.3,3.3,0,0,1,3.3-3.3h1.37a3.3,3.3,0,0,1,3.3,3.3V52.81a3.3,3.3,0,0,1-3.3,3.3"/><path class="cls-3" d="M39.78,56.12H38.42a3.3,3.3,0,0,1-3.3-3.3V27.07a3.3,3.3,0,0,1,3.3-3.3h1.37a3.3,3.3,0,0,1,3.3,3.3V52.81a3.3,3.3,0,0,1-3.3,3.3"/></g><g class="cls-2"><path class="cls-4" d="M15.87,4.17H14.51A1.84,1.84,0,0,0,12.67,6V8.23h5V6a1.84,1.84,0,0,0-1.83-1.83"/><path class="cls-4" d="M5.92,33.89a10.37,10.37,0,0,0-.14-1.07C5.23,29.91,3.2,30,3,30l-.05,0H2.73a.74.74,0,0,0-.73.73v3.16Z"/><path class="cls-3" d="M25.58,28.19H14.39a3.19,3.19,0,0,0-3.18,3.18V52.51c0,5,3.06,5.08,5.2,8.51,1.19,1.9,1.14,8.58,1.14,8.58H36.74s0-6.68,1.14-8.58c2.14-3.43,5.2-3.49,5.2-8.51V28.19Z"/><path class="cls-5" d="M15.19,83V67.68a1.91,1.91,0,0,1,1.91-1.91H37.19a1.91,1.91,0,0,1,1.91,1.91V83Z"/></g></svg>