<?xml version="1.0" encoding="UTF-8" standalone="no"?>
<!-- Created with Inkscape (http://www.inkscape.org/) -->

<svg
   xmlns:dc="http://purl.org/dc/elements/1.1/"
   xmlns:cc="http://creativecommons.org/ns#"
   xmlns:rdf="http://www.w3.org/1999/02/22-rdf-syntax-ns#"
   xmlns:svg="http://www.w3.org/2000/svg"
   xmlns="http://www.w3.org/2000/svg"
   xmlns:sodipodi="http://sodipodi.sourceforge.net/DTD/sodipodi-0.dtd"
   xmlns:inkscape="http://www.inkscape.org/namespaces/inkscape"
   width="186"
   height="70"
   viewBox="0 0 49.21253 18.520834"
   version="1.1"
   id="svg1084"
   inkscape:version="0.92.1 r15371"
   sodipodi:docname="logo_footer_fundacao.svg">
  <defs
     id="defs1078" />
  <sodipodi:namedview
     id="base"
     pagecolor="#ffffff"
     bordercolor="#666666"
     borderopacity="1.0"
     inkscape:pageopacity="0.0"
     inkscape:pageshadow="2"
     inkscape:zoom="3.0888889"
     inkscape:cx="211.39259"
     inkscape:cy="25.714286"
     inkscape:document-units="mm"
     inkscape:current-layer="layer1"
     showgrid="false"
     units="px"
     inkscape:window-width="1920"
     inkscape:window-height="1043"
     inkscape:window-x="1920"
     inkscape:window-y="0"
     inkscape:window-maximized="1" />
  <metadata
     id="metadata1081">
    <rdf:RDF>
      <cc:Work
         rdf:about="">
        <dc:format>image/svg+xml</dc:format>
        <dc:type
           rdf:resource="http://purl.org/dc/dcmitype/StillImage" />
        <dc:title></dc:title>
      </cc:Work>
    </rdf:RDF>
  </metadata>
  <g
     inkscape:label="Camada 1"
     inkscape:groupmode="layer"
     id="layer1"
     transform="translate(0,-278.47916)">
    <g
       id="g12"
       transform="matrix(0.08649226,0,0,-0.08649226,24.036861,280.14709)">
      <path
         d="M 0,0 H 30.021 V -7.473 H 9.985 v -11.468 h 18.683 v -7.73 H 9.985 V -46.513 H 0 Z"
         style="fill:#00529c;fill-opacity:1;fill-rule:nonzero;stroke:none"
         id="path14"
         inkscape:connector-curvature="0" />
    </g>
    <g
       id="g24"
       transform="matrix(0.08649226,0,0,-0.08649226,27.810082,281.3562)">
      <path
         d="m 0,0 v -19.392 c 0,-2.834 0,-7.15 5.09,-7.15 6.12,0 6.12,4.574 6.12,10.114 V 0 h 9.792 v -21.453 c 0.129,-7.022 0.193,-7.859 0.193,-8.697 0.065,-0.902 0.129,-1.482 0.258,-2.383 h -9.276 l -0.323,4.316 c -0.966,-1.418 -3.414,-5.154 -9.599,-5.154 -4.381,0 -7.988,1.997 -9.792,4.381 -2.126,2.641 -2.126,7.151 -2.126,8.761 V 0 Z"
         style="fill:#00529c;fill-opacity:1;fill-rule:nonzero;stroke:none"
         id="path26-7"
         inkscape:connector-curvature="0" />
    </g>
    <g
       id="g28"
       transform="matrix(0.08649226,0,0,-0.08649226,30.417435,281.85768)">
      <path
         d="M 0,0 C 0,0.129 0,3.672 -0.193,5.927 H 8.955 L 9.212,1.03 c 0.902,1.483 3.479,5.67 10.565,5.67 6.378,0 9.084,-3.866 9.922,-6.12 0.708,-1.998 0.902,-3.673 0.902,-9.728 v -17.587 h -9.728 v 20.228 c 0,1.353 0,2.513 -0.516,3.543 -0.709,1.418 -2.19,2.771 -4.638,2.771 -2.062,0 -3.93,-0.967 -4.96,-2.513 -0.58,-0.837 -1.16,-2.448 -1.16,-4.96 V -26.735 H 0 Z"
         style="fill:#00529c;fill-opacity:1;fill-rule:nonzero;stroke:none"
         id="path30-8"
         inkscape:connector-curvature="0" />
    </g>
    <g
       id="g32"
       transform="matrix(0.08649226,0,0,-0.08649226,35.041812,283.69091)">
      <path
         d="m 0,0 c 2.771,0 5.025,1.675 6.056,3.672 1.417,2.706 1.546,6.056 1.546,7.667 0,6.377 -2.77,9.856 -7.086,9.856 -6.378,0 -7.087,-7.666 -7.087,-10.952 C -6.571,4.832 -4.767,0 0,0 m 7.28,40.973 h 9.599 V -0.258 c 0,-1.932 0.129,-4.058 0.258,-5.282 H 7.473 L 7.216,-0.838 C 6.571,-1.997 5.927,-3.221 3.93,-4.51 1.546,-6.056 -0.966,-6.185 -2.384,-6.185 c -8.697,0 -13.85,5.992 -13.85,16.17 0,10.759 5.862,17.459 14.366,17.459 5.862,0 8.31,-3.286 9.148,-4.445 z"
         style="fill:#00529c;fill-opacity:1;fill-rule:nonzero;stroke:none"
         id="path34-4"
         inkscape:connector-curvature="0" />
    </g>
    <g
       id="g36"
       transform="matrix(0.08649226,0,0,-0.08649226,37.888791,283.30085)">
      <path
         d="m 0,0 c 0,-2.19 1.482,-4.639 4.639,-4.639 1.739,0 3.156,0.838 4.058,1.868 1.675,2.062 1.804,4.575 1.804,8.053 C 4.381,5.798 0,3.865 0,0 m 11.726,-10.05 c -0.323,1.997 -0.323,3.479 -0.323,4.446 -3.608,-5.219 -7.924,-5.219 -9.728,-5.219 -4.702,0 -6.828,1.352 -8.117,2.577 -1.933,1.932 -2.834,4.574 -2.834,7.15 0,2.577 0.901,7.345 6.892,10.116 3.994,1.803 9.729,1.803 12.885,1.803 0,2.126 -0.064,3.156 -0.451,4.317 -0.837,2.382 -3.35,2.705 -4.252,2.705 -1.353,0 -2.77,-0.579 -3.608,-1.804 C 1.482,14.946 1.482,13.915 1.482,13.143 h -9.341 c 0.064,1.739 0.257,5.217 3.672,7.666 2.963,2.126 6.764,2.641 9.856,2.641 2.706,0 8.375,-0.451 11.597,-4.187 2.19,-2.642 2.255,-6.507 2.255,-7.99 l 0.064,-13.077 c 0,-2.77 0.193,-5.541 0.772,-8.246 z"
         style="fill:#00529c;fill-opacity:1;fill-rule:nonzero;stroke:none"
         id="path38-5"
         inkscape:connector-curvature="0" />
    </g>
    <g
       id="g40"
       transform="matrix(0.08649226,0,0,-0.08649226,42.624752,283.15041)">
      <path
         d="m 0,0 c -0.129,-2.577 -0.451,-6.442 -4.187,-9.599 -2.964,-2.512 -5.927,-2.899 -8.44,-3.028 l -2.319,-3.156 c 0.709,0.129 1.224,0.258 2.319,0.258 4.252,0 5.348,-2.9 5.348,-4.639 0,-4.703 -5.155,-5.862 -8.119,-5.862 -2.962,0 -5.411,1.03 -6.248,1.417 l 1.353,2.706 c 1.546,-0.645 3.156,-1.161 4.51,-1.161 2.19,0 3.607,1.032 3.607,2.449 0,0.902 -0.709,2.384 -2.899,2.384 -1.224,0 -1.997,-0.323 -2.576,-0.58 l -1.354,1.353 3.415,4.895 c -1.676,0.194 -5.734,0.581 -8.955,4.253 -2.77,3.157 -4.123,7.408 -4.123,12.82 0,14.817 10.888,16.879 15.204,16.879 6.056,0 13.206,-3.351 13.271,-12.176 h -9.341 c -0.129,1.159 -0.516,5.991 -4.188,5.991 -4.509,0 -5.025,-6.829 -5.025,-10.372 0,-1.804 0.193,-7.603 2.384,-9.985 0.901,-0.967 1.868,-1.096 2.577,-1.096 1.03,0 3.994,0.451 4.381,6.249 z"
         style="fill:#00529c;fill-opacity:1;fill-rule:nonzero;stroke:none"
         id="path42-0"
         inkscape:connector-curvature="0" />
    </g>
    <g
       id="g44"
       transform="matrix(0.08649226,0,0,-0.08649226,43.772298,283.30085)">
      <path
         d="m 0,0 c 0,-2.19 1.481,-4.639 4.639,-4.639 1.739,0 3.156,0.838 4.058,1.868 1.675,2.062 1.804,4.575 1.804,8.053 C 4.381,5.798 0,3.865 0,0 m -5.733,28.152 c 0.709,4.768 3.736,7.924 7.601,7.924 1.354,0 3.093,-0.643 3.222,-0.708 L 8.762,33.95 c 0.386,-0.129 1.094,-0.386 2.19,-0.386 1.868,0 2.706,1.353 3.027,2.963 h 3.287 C 17.008,34.208 16.492,32.211 14.688,30.536 13.723,29.57 12.24,28.668 10.05,28.668 c -1.417,0 -2.641,0.451 -3.35,0.709 l -2.77,1.03 c -0.773,0.258 -2.062,0.645 -2.899,0.645 -1.096,0 -2.577,-0.452 -3.415,-2.9 z M 11.726,-10.05 c -0.323,1.997 -0.323,3.479 -0.323,4.446 -3.608,-5.219 -7.924,-5.219 -9.728,-5.219 -4.702,0 -6.828,1.352 -8.117,2.577 -1.933,1.932 -2.834,4.574 -2.834,7.15 0,2.577 0.901,7.345 6.892,10.116 3.994,1.803 9.729,1.803 12.885,1.803 0,2.126 -0.064,3.156 -0.451,4.317 -0.837,2.382 -3.35,2.705 -4.252,2.705 -1.353,0 -2.77,-0.579 -3.608,-1.804 C 1.481,14.946 1.481,13.915 1.481,13.143 h -9.34 c 0.064,1.739 0.257,5.217 3.672,7.666 2.963,2.126 6.764,2.641 9.856,2.641 2.706,0 8.375,-0.451 11.597,-4.187 2.19,-2.642 2.255,-6.507 2.255,-7.99 l 0.064,-13.077 c 0,-2.77 0.193,-5.541 0.772,-8.246 z"
         style="fill:#00529c;fill-opacity:1;fill-rule:nonzero;stroke:none"
         id="path46-3"
         inkscape:connector-curvature="0" />
    </g>
    <g
       id="g48"
       transform="matrix(0.08649226,0,0,-0.08649226,47.533103,283.6965)">
      <path
         d="m 0,0 c 4.187,0 7.023,2.513 7.023,11.146 0,4.316 -0.838,10.307 -7.151,10.307 C -7.086,21.453 -7.15,13.4 -7.15,10.437 -7.15,3.157 -4.702,0 0,0 m -0.128,27.831 c 11.789,0 16.878,-7.989 16.878,-17.072 0,-9.149 -5.282,-17.395 -17.071,-17.395 -9.278,0 -16.621,5.735 -16.621,17.137 0,7.859 3.994,17.33 16.814,17.33"
         style="fill:#00529c;fill-opacity:1;fill-rule:nonzero;stroke:none"
         id="path50-6"
         inkscape:connector-curvature="0" />
    </g>
    <g
       id="g52"
       transform="matrix(0.08649226,0,0,-0.08649226,24.053589,286.31248)">
      <path
         d="M 0,0 H 14.431 L 31.889,-36.656 V 0 h 9.277 V -46.577 H 27.443 L 9.405,-7.924 V -46.577 H 0 Z"
         style="fill:#00529c;fill-opacity:1;fill-rule:nonzero;stroke:none"
         id="path54-1"
         inkscape:connector-curvature="0" />
    </g>
    <g
       id="g56"
       transform="matrix(0.08649226,0,0,-0.08649226,30.059806,288.62488)">
      <path
         d="m 0,0 c 0,1.483 -0.129,7.28 -5.669,7.28 -4.187,0 -5.927,-3.478 -6.12,-7.28 z m -12.111,-5.991 c 0,-2.126 0,-8.697 6.635,-8.697 2.384,0 4.768,0.902 5.669,4.509 h 8.698 c -0.129,-1.546 -0.451,-4.316 -3.092,-7.086 -2.384,-2.512 -6.636,-3.8 -11.403,-3.8 -2.771,0 -8.053,0.514 -11.467,4.058 -2.964,3.092 -4.188,7.473 -4.188,12.691 0,5.283 1.288,11.596 6.764,15.397 2.513,1.675 5.605,2.706 9.148,2.706 4.639,0 10.179,-1.804 13.143,-7.859 2.19,-4.445 2.061,-9.213 1.933,-11.919 z"
         style="fill:#00529c;fill-opacity:1;fill-rule:nonzero;stroke:none"
         id="path58-0"
         inkscape:connector-curvature="0" />
    </g>
    <g
       id="g60"
       transform="matrix(0.08649226,0,0,-0.08649226,32.020924,289.52757)">
      <path
         d="m 0,0 c 0.129,-2.061 1.417,-4.444 5.411,-4.444 3.414,0 5.026,1.932 5.026,3.865 0,1.481 -0.774,2.64 -4.51,3.672 L 0,4.703 c -2.642,0.774 -8.246,2.384 -8.246,9.02 0,6.313 5.798,10.178 14.237,10.178 6.7,0 12.112,-3.092 12.369,-9.599 H 9.663 c -0.258,3.608 -3.156,3.866 -4.639,3.866 -2.576,0 -4.508,-1.225 -4.508,-3.222 0,-2.19 1.61,-2.641 4.444,-3.414 l 5.862,-1.61 C 16.75,8.311 19.52,5.283 19.52,0.838 c 0,-5.605 -4.832,-11.21 -14.946,-11.21 -4.187,0 -8.181,0.902 -11.145,3.995 -2.126,2.254 -2.32,4.831 -2.384,6.377 z"
         style="fill:#00529c;fill-opacity:1;fill-rule:nonzero;stroke:none"
         id="path62-6"
         inkscape:connector-curvature="0" />
    </g>
    <g
       id="g64"
       transform="matrix(0.08649226,0,0,-0.08649226,35.887649,290.30203)">
      <path
         d="m 0,0 c -3.093,-0.838 -5.862,-1.031 -7.409,-1.031 -9.599,0 -9.599,6.055 -9.599,8.761 v 17.845 h -6.249 v 6.314 h 6.249 v 6.378 l 9.47,3.479 V 31.889 H 0.193 V 25.575 H -7.538 V 10.887 c 0.064,-2.963 0.064,-4.831 4.316,-4.831 1.418,0 2.062,0.064 3.222,0.193 z"
         style="fill:#00529c;fill-opacity:1;fill-rule:nonzero;stroke:none"
         id="path66-3"
         inkscape:connector-curvature="0" />
    </g>
    <path
       d="m 36.399936,286.31249 h 0.824613 v 4.02854 h -0.824613 z"
       style="fill:#00529c;fill-opacity:1;fill-rule:nonzero;stroke:none;stroke-width:0.08649225"
       id="path68-2"
       inkscape:connector-curvature="0" />
    <g
       id="g70"
       transform="matrix(0.08649226,0,0,-0.08649226,39.208144,287.08137)">
      <path
         d="m 0,0 h -5.154 l 5.347,9.341 h 8.633 z m 5.218,-17.846 c 0,1.483 -0.129,7.281 -5.669,7.281 -4.188,0 -5.927,-3.479 -6.12,-7.281 z m -12.112,-5.991 c 0,-2.126 0,-8.696 6.636,-8.696 2.384,0 4.768,0.901 5.669,4.508 h 8.697 c -0.129,-1.545 -0.451,-4.316 -3.091,-7.085 -2.384,-2.513 -6.636,-3.801 -11.404,-3.801 -2.77,0 -8.053,0.515 -11.467,4.058 -2.963,3.092 -4.187,7.473 -4.187,12.691 0,5.283 1.288,11.597 6.764,15.397 2.512,1.675 5.605,2.706 9.148,2.706 4.639,0 10.179,-1.803 13.143,-7.859 2.19,-4.445 2.061,-9.213 1.932,-11.919 z"
         style="fill:#00529c;fill-opacity:1;fill-rule:nonzero;stroke:none"
         id="path72-0"
         inkscape:connector-curvature="0" />
    </g>
    <g
       id="g74"
       transform="matrix(0.08649226,0,0,-0.08649226,24.855914,295.52235)">
      <path
         d="m 0,0 h 6.765 c 4.574,0 9.727,0 9.727,6.249 0,6.636 -5.991,6.636 -10.759,6.636 H 0 Z m 0,20.101 h 6.958 c 2.835,0 7.988,0 7.988,5.991 0,5.798 -4.896,5.798 -8.181,5.798 H 0 Z M -9.534,39.04 H 7.859 c 2.706,0 7.925,0 11.468,-2.19 4.252,-2.705 5.218,-7.215 5.218,-9.921 0,-1.74 -0.322,-4.767 -2.705,-6.957 -0.322,-0.387 -2.577,-2.449 -5.283,-3.158 v -0.128 c 7.087,-1.289 9.856,-6.443 9.856,-11.338 0,-5.477 -3.221,-9.149 -6.828,-10.952 C 15.977,-7.473 9.664,-7.473 7.859,-7.473 H -9.534 Z"
         style="fill:#00529c;fill-opacity:1;fill-rule:nonzero;stroke:none"
         id="path76-6"
         inkscape:connector-curvature="0" />
    </g>
    <g
       id="g78"
       transform="matrix(0.08649226,0,0,-0.08649226,27.730684,294.04574)">
      <path
         d="M 0,0 C 0,1.546 -0.258,6.249 -0.451,8.117 H 8.504 L 8.697,1.868 c 1.224,2.771 3.35,6.7 11.08,6.314 V -0.387 C 10.114,0.516 9.534,-4.445 9.534,-8.504 V -24.545 H 0 Z"
         style="fill:#00529c;fill-opacity:1;fill-rule:nonzero;stroke:none"
         id="path80-1"
         inkscape:connector-curvature="0" />
    </g>
    <g
       id="g82"
       transform="matrix(0.08649226,0,0,-0.08649226,30.462029,295.29946)">
      <path
         d="m 0,0 c 0,-2.19 1.482,-4.639 4.639,-4.639 1.739,0 3.156,0.838 4.058,1.868 1.675,2.062 1.804,4.575 1.804,8.054 C 4.381,5.798 0,3.865 0,0 m 11.725,-10.05 c -0.322,1.997 -0.322,3.479 -0.322,4.445 -3.608,-5.218 -7.924,-5.218 -9.728,-5.218 -4.702,0 -6.828,1.353 -8.117,2.577 -1.933,1.933 -2.834,4.574 -2.834,7.151 0,2.576 0.901,7.344 6.892,10.115 3.994,1.803 9.729,1.803 12.885,1.803 0,2.126 -0.064,3.156 -0.451,4.317 -0.837,2.383 -3.35,2.705 -4.252,2.705 -1.353,0 -2.77,-0.579 -3.608,-1.804 C 1.482,14.946 1.482,13.915 1.482,13.143 h -9.341 c 0.064,1.739 0.257,5.217 3.672,7.666 2.963,2.126 6.764,2.641 9.856,2.641 2.706,0 8.375,-0.451 11.597,-4.187 2.19,-2.642 2.255,-6.507 2.255,-7.989 l 0.064,-13.078 c 0,-2.77 0.193,-5.54 0.772,-8.246 z"
         style="fill:#00529c;fill-opacity:1;fill-rule:nonzero;stroke:none"
         id="path84-5"
         inkscape:connector-curvature="0" />
    </g>
    <g
       id="g86"
       transform="matrix(0.08649226,0,0,-0.08649226,33.459532,295.3552)">
      <path
         d="m 0,0 c 0.129,-2.062 1.417,-4.444 5.411,-4.444 3.414,0 5.026,1.932 5.026,3.865 0,1.481 -0.774,2.64 -4.51,3.672 L 0,4.703 c -2.642,0.774 -8.246,2.384 -8.246,9.02 0,6.313 5.798,10.178 14.237,10.178 6.7,0 12.111,-3.092 12.369,-9.599 H 9.663 c -0.258,3.608 -3.156,3.866 -4.639,3.866 -2.576,0 -4.508,-1.225 -4.508,-3.222 0,-2.19 1.61,-2.641 4.444,-3.414 l 5.862,-1.61 c 5.928,-1.612 8.697,-4.639 8.697,-9.084 0,-5.605 -4.831,-11.21 -14.945,-11.21 -4.187,0 -8.181,0.902 -11.145,3.995 -2.126,2.254 -2.32,4.831 -2.384,6.377 z"
         style="fill:#00529c;fill-opacity:1;fill-rule:nonzero;stroke:none"
         id="path88-5"
         inkscape:connector-curvature="0" />
    </g>
    <path
       d="m 35.671323,293.34924 h 0.824616 v 2.81948 h -0.824616 z m -0.02786,-1.20353 h 0.880403 v 0.71883 h -0.8804 z"
       style="fill:#00529c;fill-opacity:1;fill-rule:nonzero;stroke:none;stroke-width:0.08649225"
       id="path90-4"
       inkscape:connector-curvature="0" />
    <path
       d="m 37.220139,292.14009 h 0.824617 v 4.02854 h -0.824617 z"
       style="fill:#00529c;fill-opacity:1;fill-rule:nonzero;stroke:none;stroke-width:0.08649225"
       id="path92-7"
       inkscape:connector-curvature="0" />
    <path
       d="m 21.027319,297.02205 h -0.271153 v -18.49239 h 0.271153 z"
       style="fill:#00529c;fill-opacity:1;fill-rule:nonzero;stroke:none;stroke-width:0.08649225"
       id="path94-6"
       inkscape:connector-curvature="0" />
    <g
       id="g96"
       transform="matrix(0.08649226,0,0,-0.08649226,10.235125,287.91649)">
      <path
         d="m 0,0 c 4.244,6.803 8.031,12.835 17.326,17.746 -0.983,0.595 -2.385,1.508 -3.122,1.998 C 10.592,18.166 7.014,15.01 3.963,11.819 -3.051,4.524 -2.419,0.316 -9.819,-2.525 c -1.858,-0.701 -4.138,-1.472 -7.049,-2.139 -1.718,5.296 -6.031,10.556 -10.59,10.556 -3.158,0 -6.805,-1.648 -11.013,-3.507 -4.944,-2.175 -9.468,-4.664 -10.907,-5.611 l 1.929,-2.595 c 1.473,0.807 5.717,2.911 9.96,4.734 3.683,1.577 7.013,2.876 9.258,2.876 3.612,0 5.962,-4.104 7.26,-7.4 -4.735,-1.122 -12.52,-1.403 -14.87,-1.403 -1.087,0 -1.472,-0.175 -1.859,-0.491 -0.35,-0.315 -0.63,-0.877 -0.806,-1.649 l -0.281,-1.19 h 2.525 c 13.116,0 25.496,2.068 33.457,6.908 1.122,-0.317 2.104,-0.527 3.366,-0.527 4.559,0 9.258,2.49 12.205,4.77 1.051,0.806 1.298,1.543 1.298,2.349 0,0.386 -0.036,0.737 -0.071,1.088 l -0.14,1.368 C 9.644,2.28 6.137,-0.21 1.788,-0.21 1.018,-0.21 0.456,-0.14 0,0 M 26.408,13.186 C 21.147,2.104 13.151,-5.962 4.945,-10.625 c -3.893,-2.211 -7.399,-3.648 -14.974,-3.648 h -16.379 c -5.856,0 -9.538,-0.772 -12.413,-1.509 -3.087,-0.806 -5.051,-1.613 -8.172,-1.613 -4.629,0 -8.907,2.281 -10.977,4.455 l 3.858,3.05 -1.929,2.561 c -1.122,-0.807 -14.834,-10.943 -17.71,-13.221 l -0.175,0.105 c 0.07,0.701 0.07,1.333 0.07,1.963 0,7.715 -3.577,9.575 -9.012,11.749 l -3.684,-2.174 c 7.47,-2.491 9.33,-4.489 9.33,-10.066 0,-4.418 -1.579,-6.172 -3.859,-7.504 -2.35,-1.368 -5.261,-1.998 -7.82,-1.998 -1.087,0 -1.578,-0.212 -1.965,-0.598 -0.419,-0.42 -0.63,-1.052 -0.63,-1.928 v -1.228 h 0.876 c 4.7,0 9.049,0.736 13.818,4.489 l 15.535,12.134 c 2.21,-2.525 7.787,-6.032 14.378,-6.032 3.719,0 6.103,0.913 9.541,1.789 2.665,0.667 5.259,1.263 10.94,1.263 H -9.96 c 8.418,0 12.485,1.752 16.974,4.277 9.749,5.472 18.062,14.73 22.76,25.356 -1.227,0.772 -2.384,1.473 -3.366,2.139 m -65.124,12.52 c 4.419,3.121 8.977,3.472 12.66,3.472 2.209,0 4.805,-0.315 7.539,-0.666 2.21,-0.281 4.209,-0.491 6.594,-0.491 4.804,0 9.644,1.753 11.748,2.664 0.596,-0.735 1.613,-1.717 2.42,-2.419 -1.018,-0.631 -7.47,-4.138 -14.064,-4.138 -2.91,0 -5.68,0.351 -8.065,0.666 -2.104,0.281 -4.384,0.527 -6.594,0.527 -2.419,0 -7.293,-0.702 -10.31,-2.139 z m -50.466,0.632 c 1.894,0 3.438,0.63 4.911,1.227 1.403,0.561 2.805,1.122 4.699,1.122 4.489,0 10.03,-2.174 14.904,-4.244 0.281,-0.105 0.596,-0.174 0.912,-0.174 0.771,0 1.368,0.35 1.754,1.087 l 0.63,1.157 c -5.364,3.121 -13.922,6.452 -18.376,6.452 -2.034,0 -3.507,-0.526 -4.91,-1.087 -1.578,-0.631 -2.946,-1.297 -4.384,-1.297 -3.541,0 -12.624,3.506 -12.624,6.909 0,3.997 14.449,5.54 16.027,5.54 l 1.438,3.261 c -10.486,0 -22.972,-3.682 -22.972,-8.557 0,-1.402 0.808,-2.104 0.808,-3.401 0,-1.753 -0.808,-2.946 -0.808,-4.91 0,-1.297 0.773,-2.945 1.684,-4.383 0.982,-1.508 2.14,-2.491 2.14,-3.754 0,-0.945 -0.633,-2.068 -0.633,-4.277 0,-4.735 2.701,-7.611 7.962,-13.256 l 1.052,-1.122 c -4.349,-1.684 -12.45,-5.191 -14.343,-5.997 -6.559,-2.736 -8.207,-6.068 -8.207,-11.328 0,-2.034 0,-4.349 0.141,-6.417 h 1.262 c 2.631,0 2.946,1.577 2.946,3.086 0,1.017 -0.035,2.174 -0.035,3.436 0.035,2.911 0.14,5.506 4.839,7.61 1.895,0.842 11.188,4.629 18.097,7.575 2.033,0.877 3.926,1.613 6.031,1.613 2.349,0 5.05,-1.017 8.417,-3.015 2.84,-1.684 5.821,-3.964 8.171,-6.593 l 2.981,2.278 c -2.561,3.018 -6.102,5.717 -9.644,7.822 -3.543,2.104 -6.698,3.331 -9.364,3.331 -1.157,0 -2.103,-0.21 -2.911,-0.42 -0.946,-0.246 -1.823,-0.527 -2.946,-0.527 -1.297,0 -2.383,0.316 -3.963,2.14 -0.595,0.665 -4.383,4.98 -5.19,6.242 -0.384,0.596 -1.087,1.788 -1.087,3.191 0,0.595 0.105,1.298 0.456,1.929 3.262,-2.525 7.294,-4.068 12.205,-4.665 l -0.667,3.331 c -7.049,1.859 -14.555,8.068 -14.555,12.064 0,0.844 0.213,1.439 0.528,2.175 2.736,-2.524 9.153,-5.154 12.624,-5.154 m 62.88,16.026 h 17.921 l -1.333,3.227 h -14.905 z m 91.531,22.935 c 4.208,1.789 11.75,4.805 16.097,6.383 v 4.279 C 72.595,72.735 57.268,66.386 46.819,60.705 c 0.279,-0.35 2.103,-2.911 2.314,-3.226 4.418,1.824 8.381,3.016 11.958,3.016 5.015,0 9.119,0 15.993,1.612 v 3.228 c -3.859,-0.701 -7.961,-1.543 -10.627,-1.543 -1.578,0 -2.034,0.21 -2.034,0.736 0,0.316 0.211,0.526 0.806,0.771 M 55.866,78.03 c -2.736,0 -3.507,1.508 -3.507,3.647 0,4.419 2.771,10.767 4.524,14.379 H 52.64 C 50.431,91.777 41.733,78.065 37.034,72.383 l 2.7,-2.91 c 2.525,2.806 5.296,7.575 8.312,12.274 h 0.561 c 0,-0.245 -0.035,-0.526 -0.035,-0.772 0,-3.962 2.034,-6.908 7.048,-6.908 3.087,0 7.926,1.543 12.485,3.086 3.788,1.298 7.259,2.63 8.979,3.121 v 4.209 C 75.12,83.886 71.121,82.343 66.983,80.906 62.634,79.397 58.356,78.03 55.866,78.03 M -36.928,7.645 -37.77,10.871 c 7.225,3.893 13.818,7.015 24.339,8.031 0.21,-4.032 -0.07,-9.118 2.91,-9.118 2.736,0 8.698,7.05 15.571,15.887 0.632,-0.596 1.649,-1.228 2.56,-1.928 L 5.857,21.462 C -0.842,12.835 -6.558,5.471 -11.257,5.471 c -4.383,0 -6.032,5.155 -6.103,9.013 -6.697,-0.667 -13.009,-2.911 -19.568,-6.839 m -4.769,1.578 C -46.326,6.629 -51.131,4.91 -55.375,4.91 c -4.734,0 -8.943,2.034 -12.449,7.329 -1.473,2.245 -2.631,5.05 -4.033,7.54 -1.684,2.947 -3.506,4.525 -6.698,4.525 -2.911,0 -5.751,-1.194 -8.767,-2.491 l 0.14,-0.666 c 0.245,-1.087 0.666,-1.859 1.683,-1.859 0.455,0 0.911,0.21 1.157,0.281 1.684,0.526 2.912,0.982 4.629,0.982 2.631,0 3.893,-1.543 5.682,-5.33 l 0.665,-1.404 c -1.823,-0.631 -6.101,-0.946 -9.292,-0.946 h -1.508 l 0.245,-1.509 c 0.105,-0.63 0.35,-1.157 0.877,-1.402 0.631,-0.315 1.543,-0.351 3.122,-0.351 3.996,0 6.907,0.491 8.591,0.912 4.313,-6.418 10.24,-8.872 15.956,-8.872 4.875,0 9.82,1.788 14.554,4.383 z m -13.046,1.333 c -4.734,0 -6.84,2.244 -6.84,5.085 0,4.98 8.733,9.854 16.59,12.871 l 2.033,-2.63 c -4.839,-1.929 -14.588,-6.068 -14.588,-9.645 0,-1.262 0.736,-2.174 3.681,-2.174 5.121,0 10.628,2.49 15.712,4.98 0.385,0.175 0.842,0.351 1.262,0.351 0.667,0 1.088,-0.211 1.578,-0.912 l 0.842,-1.158 C -40.4,14.063 -47.799,10.556 -54.743,10.556 M 53.656,-80.975 c 0.456,4.314 3.753,7.54 8.768,7.54 4.909,0 8.312,-3.226 8.768,-7.54 z m 8.734,15.36 c -12.17,0 -19.009,-9.503 -19.009,-19.533 0,-10.698 7.33,-20.097 19.078,-20.097 5.856,0 11.608,2.209 14.905,6.102 1.437,1.684 2.596,4.035 2.596,5.473 0,0.49 -0.106,0.911 -0.388,1.227 -0.279,0.351 -0.7,0.56 -1.437,0.56 h -5.646 c -1.123,0 -1.893,-0.42 -2.454,-1.262 -1.649,-2.419 -4.035,-3.682 -7.541,-3.682 -5.261,0 -8.661,3.998 -8.907,8.381 h 24.479 c 1.087,0 1.858,0.247 2.383,0.772 0.598,0.561 0.877,1.368 0.877,2.876 0,4.593 -1.438,9.362 -4.453,13.011 -3.086,3.682 -7.856,6.172 -14.483,6.172 m 15.465,5.366 c 0.736,0 1.298,0.21 1.717,0.56 0.457,0.421 0.668,0.983 0.668,1.823 v 3.263 c 0,1.263 -0.246,1.894 -0.668,2.349 -0.385,0.421 -1.016,0.667 -1.717,0.667 -0.561,0 -1.123,-0.069 -2.069,-0.176 L 47.8,-54.533 c -0.807,-0.07 -1.192,-0.317 -1.473,-0.632 -0.316,-0.35 -0.456,-0.805 -0.456,-1.437 v -1.824 c 0,-0.701 0.14,-1.017 0.386,-1.298 0.315,-0.35 0.772,-0.525 1.402,-0.525 z M -40.926,54.814 c 0,0.351 0.035,0.771 0.175,1.192 0.282,0.911 0.877,1.788 2.35,1.788 0.667,0 1.403,-0.174 1.999,-0.595 0.526,-0.352 0.737,-0.807 0.737,-1.263 0,-1.508 -2.526,-3.262 -3.789,-3.262 -0.911,0 -1.472,0.878 -1.472,2.14 m -8.241,21.638 c 0,1.507 0.912,3.155 2.665,3.155 0.772,0 1.684,-0.315 2.35,-0.945 0.385,-0.353 0.561,-0.737 0.561,-1.123 0,-0.842 -0.807,-1.649 -1.754,-2.209 -0.735,-0.422 -1.507,-0.702 -2.174,-0.702 -1.087,0 -1.648,0.666 -1.648,1.824 m 35.595,10.24 c 0,1.227 0.632,3.437 2.911,3.437 0.772,0 1.508,-0.176 2.104,-0.456 0.843,-0.385 1.404,-0.947 1.404,-1.544 0,-0.63 -0.632,-1.262 -1.579,-2.033 -0.982,-0.806 -2.244,-1.543 -3.261,-1.543 -1.228,0 -1.579,1.157 -1.579,2.139 m -89.952,-27.214 c -0.458,-0.175 -0.668,-0.281 -0.913,-0.281 -0.385,0 -0.56,0.316 -0.56,0.562 0,0.246 0.105,0.386 0.35,0.596 4.313,3.366 8.1,4.699 13.327,5.576 l 0.63,-2.104 z m 23.776,16.273 -1.894,1.156 c 1.227,2.911 2.735,5.577 4.525,7.576 1.262,1.437 2.454,2.594 3.786,3.752 0.316,0.246 0.491,0.457 0.808,0.457 0.351,0 0.595,-0.281 0.595,-0.563 0,-0.139 -0.07,-0.315 -0.209,-0.525 -2.139,-3.331 -6.313,-9.925 -7.611,-11.853 m -24.864,11.748 c -0.315,0.28 -0.385,0.456 -0.385,0.666 0,0.246 0.175,0.527 0.56,0.527 0.14,0 0.28,-0.036 0.455,-0.106 2.596,-1.053 4.806,-2.279 6.77,-3.788 1.648,-1.263 3.261,-2.806 4.839,-4.664 l -1.473,-1.683 c -1.823,1.508 -7.715,6.452 -10.766,9.048 m 25.705,-31.668 c 0.527,0.876 2.105,3.016 2.736,3.682 -2.701,5.471 -7.119,10.696 -9.048,12.766 l -1.612,-1.578 c 1.857,-2.701 4.978,-7.927 7.924,-14.87 m 18.833,-136.806 c 0.457,4.314 3.752,7.54 8.767,7.54 4.911,0 8.312,-3.226 8.768,-7.54 z M 33.948,39.944 c -0.246,0.316 -0.456,0.456 -0.737,0.456 -0.421,0 -0.631,-0.281 -0.631,-0.596 0,-0.491 0.35,-1.088 1.227,-2.561 2.665,-4.524 5.963,-9.083 10.03,-13.361 4.383,-4.664 9.539,-9.012 15.045,-12.906 l 1.719,-1.192 c 0.245,-0.175 0.421,-0.28 0.631,-0.28 0.35,0 0.596,0.351 0.596,0.631 0,0.176 -0.071,0.351 -0.281,0.527 -5.119,4.663 -10.626,10.345 -15.781,15.816 -4.033,4.313 -8.17,8.872 -11.818,13.466 m -89.989,2.14 c -1.998,-2.701 -4.733,-6.243 -6.839,-9.995 0.667,-0.316 2.876,-1.508 3.648,-1.928 2.42,3.646 5.786,8.135 7.995,11.537 2,3.086 2.806,4.418 2.946,8.557 0.036,0.701 0.036,1.368 0.105,2.033 0.175,2.14 0.737,4.314 2.771,6.313 1.509,1.508 3.683,2.28 5.857,2.28 2.105,0 3.332,-0.596 5.156,-0.596 1.296,0 2.244,0.315 3.085,0.631 l 0.666,0.245 -1.613,-3.857 3.788,-1.543 c -2.42,-1.509 -7.715,-7.996 -7.715,-15.677 0,-2.77 0.421,-5.33 1.016,-7.609 0.071,-0.246 0.21,-0.492 0.597,-0.492 0.35,0 0.596,0.211 0.631,0.597 l 0.035,0.807 c 0.106,2.349 0.281,6.066 1.228,9.398 1.578,5.61 5.822,10.872 10.064,13.396 l -6.032,2.631 2.596,6.347 -2.841,-0.595 c -1.719,-0.351 -2.981,-0.667 -4.49,-0.667 -0.98,0 -2.103,0.14 -3.436,0.456 -1.017,0.245 -2.104,0.456 -3.646,0.456 -2.77,0 -5.752,-1.052 -7.786,-3.016 -3.717,-3.543 -3.928,-7.365 -4.174,-10.767 -0.316,-4.524 -1.157,-5.646 -3.612,-8.942 m -8.066,23.881 c -1.648,-2.349 -2.841,-3.506 -6.593,-7.925 -4.944,-5.856 -7.54,-10.591 -11.853,-21.112 0.7,0.07 1.717,0.14 2.84,0.14 0.56,0 1.018,0 1.754,-0.034 l 0.526,1.122 c 2.42,5.19 5.68,12.204 10.239,17.605 l 1.578,1.859 c 4.701,5.506 7.612,8.766 9.435,16.272 0.631,2.665 1.158,5.05 2.946,6.768 1.613,1.543 3.647,2.209 5.716,2.209 1.754,0 3.052,-0.42 4.945,-1.227 1.718,-0.736 2.35,-0.877 4.173,-0.877 0.631,0 1.088,0.036 1.508,0.071 l -2.455,-3.297 3.332,-2.349 c -4.173,-1.229 -6.383,-5.261 -7.118,-7.12 -0.142,-0.386 -0.211,-0.631 -0.211,-0.877 0,-0.28 0.14,-0.561 0.561,-0.561 0.455,0 0.807,0.351 1.402,1.052 2.034,2.456 3.648,4.138 11.152,6.488 l -5.295,3.998 3.998,5.857 h -3.753 c -2.385,0 -3.963,0.035 -6.032,0.982 -2.805,1.298 -4.243,1.858 -6.734,1.858 -3.05,0 -5.821,-1.086 -8.1,-3.191 -2.63,-2.419 -3.436,-5.646 -4.384,-9.189 -0.737,-2.734 -1.613,-5.751 -3.577,-8.522 M 29.6,-101.419 c 0,-0.912 0.28,-1.58 0.699,-2.106 0.527,-0.631 1.264,-1.02 2.351,-1.02 h 4.173 c 1.087,0 1.824,0.389 2.351,1.02 0.419,0.526 0.7,1.194 0.7,2.106 v 45.902 c 0,0.912 -0.281,1.578 -0.7,2.105 -0.527,0.632 -1.264,1.019 -2.351,1.019 H 32.65 c -1.087,0 -1.824,-0.387 -2.351,-1.019 C 29.88,-53.939 29.6,-54.605 29.6,-55.517 Z M 8.136,-66.948 H 6.172 c -0.736,0 -1.297,-0.211 -1.718,-0.561 -0.456,-0.421 -0.666,-0.983 -0.666,-1.824 v -2.42 c 0,-0.842 0.21,-1.402 0.666,-1.822 0.421,-0.352 0.982,-0.563 1.718,-0.563 h 1.964 v -17.5 c 0,-4.488 1.228,-7.294 3.507,-9.537 2.104,-2.072 4.84,-3.37 9.609,-3.37 h 2.982 c 0.736,0 1.296,0.211 1.718,0.562 0.455,0.423 0.735,0.984 0.735,1.825 v 3.051 c 0,0.842 -0.28,1.402 -0.735,1.823 -0.422,0.353 -0.982,0.562 -1.718,0.562 h -0.421 c -1.894,0 -3.192,0.49 -4.068,1.334 -1.053,0.98 -1.579,2.487 -1.579,4.452 v 16.798 h 6.384 c 0.735,0 1.297,0.211 1.717,0.563 0.457,0.42 0.667,0.98 0.667,1.822 v 2.42 c 0,0.841 -0.21,1.403 -0.667,1.824 -0.42,0.35 -0.982,0.561 -1.717,0.561 h -6.348 v 11.433 c 0,0.911 -0.281,1.578 -0.702,2.103 -0.527,0.632 -1.263,1.018 -2.349,1.018 h -3.964 c -1.087,0 -1.823,-0.386 -2.349,-1.018 -0.421,-0.525 -0.702,-1.192 -0.702,-2.103 z M -74.312,93.46 c 0.736,1.614 2.349,2.736 4.278,2.736 2.63,0 4.736,-2.034 4.736,-4.735 0,-1.578 -0.738,-2.946 -1.896,-3.787 0.246,-0.912 0.422,-1.718 0.422,-2.491 0,-2.945 -1.754,-5.014 -4.981,-6.101 -0.419,-1.789 -1.192,-3.401 -2.454,-4.595 -2.104,-2.034 -4.243,-2.034 -4.243,-2.875 0,-0.456 0.316,-0.737 1.193,-0.737 3.891,0 7.715,2.175 8.17,5.787 3.718,1.263 5.962,5.015 5.962,7.995 0,0.772 -0.07,1.439 -0.386,2.07 1.017,0.982 2.209,2.665 2.209,5.156 0,2.173 -0.946,4.383 -2.629,5.996 -1.473,1.438 -3.543,2.385 -5.963,2.385 -3.506,0 -5.786,-1.893 -7.083,-3.752 -3.824,0 -8.767,-4.244 -8.767,-10.311 h -0.527 c -0.351,2.104 -2.524,3.507 -4.349,3.612 -1.473,4.419 -4.804,8.207 -10.276,8.207 -0.629,0 -1.402,-0.035 -2.068,-0.141 -1.613,1.473 -3.401,2.385 -5.891,2.385 -4.77,0 -8.663,-3.821 -8.663,-8.662 0,-3.016 1.368,-5.085 3.964,-6.909 0,0 -0.036,-0.386 -0.036,-0.561 0,-3.858 4.209,-9.89 10.451,-9.89 0,-0.982 1.228,-2.314 2.596,-2.56 v -0.49 h -0.528 c -8.591,0 -12.238,-4.14 -12.238,-6.91 -2.561,-1.051 -4.209,-3.893 -4.209,-6.523 0,-5.225 3.823,-8.942 8.873,-8.942 1.683,0 3.401,0.665 4.594,1.578 0.877,-0.316 2,-0.49 3.155,-0.49 2.421,0 5.122,0.841 7.015,3.612 0.28,-0.036 0.526,-0.036 0.807,-0.036 3.086,0 5.752,2.034 7.154,4.7 0.351,0.666 0.492,1.191 0.492,1.578 0,0.386 -0.176,0.701 -0.562,0.701 -0.491,0 -0.562,-0.455 -1.438,-1.263 -1.964,-1.788 -4.98,-2.454 -8.067,-2.454 -1.507,-2.21 -3.365,-3.368 -5.506,-3.368 -1.578,0 -2.805,0.422 -4.068,1.263 -1.016,-1.121 -2.279,-1.577 -3.506,-1.577 -2.771,0 -4.734,1.928 -4.734,4.733 0,1.965 1.262,3.718 3.015,4.385 0.316,3.471 4.034,5.821 8.663,5.821 0.595,0 1.193,-0.035 1.823,-0.106 0.703,1.123 2.385,2.315 4.769,2.631 0.493,0.07 0.877,0.106 1.158,0.245 0.28,0.141 0.42,0.422 0.42,0.737 0,0.28 -0.105,0.526 -0.385,0.701 -0.245,0.14 -0.666,0.21 -1.157,0.316 -2.209,0.421 -4.839,1.789 -6.172,5.12 -5.295,0 -9.188,4.244 -9.188,9.013 v 0.315 c -1.753,0.702 -2.946,2.385 -2.946,4.384 0,2.63 2.068,4.734 4.699,4.734 1.578,0 2.946,-0.771 3.823,-1.928 0.736,0.211 1.578,0.28 2.384,0.28 3.928,0 8.137,-2.49 8.942,-7.329 5.051,-0.456 6.244,-4.734 6.559,-6.523 0.176,-0.913 0.315,-1.683 0.912,-1.683 0.631,0 0.771,0.7 0.981,1.648 0.386,1.788 1.053,3.226 2.386,4.348 0,4.595 3.436,8.557 8.311,8.557 m 60.6,-159.075 c -9.609,0 -15.921,-4.559 -15.921,-11.853 0,-2.596 0.947,-4.699 2.49,-6.348 1.788,-1.93 4.348,-3.263 8.066,-4.208 l 8.03,-2.035 c 2.209,-0.561 4.174,-1.226 4.174,-3.156 0,-2.981 -3.156,-3.997 -6.523,-3.997 -1.649,0 -3.366,0.315 -4.769,1.016 -0.983,0.491 -1.824,1.193 -2.421,2.14 -0.525,0.805 -0.7,1.403 -1.508,1.858 -0.49,0.28 -1.087,0.315 -1.893,0.315 h -4.348 c -0.947,0 -1.404,-0.28 -1.719,-0.666 -0.315,-0.385 -0.422,-0.947 -0.422,-1.507 0,-1.403 0.493,-3.156 1.649,-4.736 2.665,-3.577 8.241,-6.453 15.36,-6.453 7.015,0 16.729,2.914 16.729,12.311 0,2.419 -0.702,4.488 -2,6.172 -1.648,2.14 -3.998,3.611 -7.995,4.629 l -7.961,2.034 c -3.297,0.842 -4.84,1.437 -4.84,3.473 0,1.963 1.754,3.541 5.822,3.541 2.385,0 4.559,-0.526 5.962,-1.998 1.158,-1.228 0.947,-1.861 1.859,-2.35 0.562,-0.28 1.192,-0.28 2.174,-0.28 h 3.962 c 0.632,0 1.088,0.104 1.438,0.489 0.281,0.316 0.457,0.808 0.457,1.614 0,1.824 -1.193,4.173 -3.297,5.961 -2.805,2.421 -7.224,4.034 -12.555,4.034 m -37.63,0 c -12.169,0 -19.008,-9.503 -19.008,-19.533 0,-10.698 7.33,-20.097 19.078,-20.097 5.857,0 11.608,2.209 14.905,6.102 1.437,1.684 2.596,4.035 2.596,5.473 0,0.49 -0.107,0.911 -0.386,1.227 -0.281,0.351 -0.702,0.56 -1.438,0.56 h -5.646 c -1.123,0 -1.893,-0.42 -2.456,-1.262 -1.648,-2.419 -4.032,-3.682 -7.54,-3.682 -5.259,0 -8.662,3.998 -8.907,8.381 h 24.409 c 1.087,0 1.857,0.247 2.384,0.772 0.597,0.561 0.877,1.368 0.877,2.876 0,4.593 -1.438,9.362 -4.454,13.011 -3.086,3.682 -7.785,6.172 -14.414,6.172 M 46.082,52.709 C 33.036,72.173 21.569,78.731 18.341,81.818 c -3.542,3.402 -6.242,7.258 -7.961,9.118 -3.822,4.173 -8.767,9.328 -16.903,9.328 -7.855,0 -13.046,-5.12 -14.728,-9.539 -0.492,-1.263 -0.878,-2.806 -1.228,-3.367 -0.772,-1.262 -4.244,-7.189 -5.681,-9.538 h 6.488 l -3.157,-5.962 c 3.682,0.807 6.312,1.402 9.819,1.402 3.122,0 5.366,-0.736 6.348,-2.7 1.824,-3.647 1.824,-14.694 4.909,-23.006 2.876,-7.82 9.89,-15.465 17.781,-21.322 0.105,-0.07 0.21,-0.105 0.351,-0.105 0.385,0 0.631,0.281 0.631,0.561 0,0.21 -0.069,0.351 -0.246,0.527 -6.593,6.592 -11.958,13.887 -14.834,21.883 -2.841,7.785 -2.384,18.727 -4.874,23.601 -1.648,3.226 -5.156,4.068 -8.382,4.068 -2.596,0 -5.014,-0.525 -6.137,-0.771 l 2.84,4.805 h -4.804 c 1.017,1.788 2.069,3.436 2.595,4.419 0.457,0.841 0.632,1.893 1.193,3.331 1.823,4.594 5.856,7.505 11.116,7.505 6.594,0 10.451,-4.244 14.274,-8.488 1.753,-1.963 4.629,-6.066 7.961,-9.117 C 17.991,76.346 22.34,73.996 29.038,67.088 32.895,63.091 37.385,57.9 42.12,50.956 59.057,26.162 70.174,4.313 76.381,-12.73 L 76.276,-12.8 C 58.496,-0.736 43.101,10.662 30.687,24.724 21.883,34.719 14.238,46.291 7.575,61.056 c -0.456,0.982 -0.841,1.895 -1.262,2.841 -0.176,0.385 -0.351,0.491 -0.631,0.491 -0.35,0 -0.597,-0.247 -0.597,-0.596 0,-0.386 0.175,-1.228 0.561,-2.911 C 9.189,45.591 19.008,31.878 29.494,20.48 39.945,9.154 51.763,-0.597 61.478,-7.679 l 7.573,-21.674 c 0.177,-0.526 0.386,-1.088 0.386,-1.613 0,-0.386 -0.104,-0.701 -0.35,-0.912 -0.211,-0.211 -0.491,-0.315 -1.122,-0.315 h -2.28 c -0.982,0 -1.367,0.139 -1.717,0.42 -0.353,0.28 -0.597,0.702 -0.772,1.193 -0.668,2.033 -4.665,13.431 -5.436,15.746 -0.141,0.42 -0.386,0.561 -0.666,0.561 -0.352,0 -0.596,-0.28 -0.596,-0.596 0,-0.281 0.104,-0.597 0.281,-1.578 1.015,-5.191 2.208,-11.013 2.699,-13.222 0.211,-1.017 0.457,-1.964 0.457,-2.665 0,-0.631 -0.141,-0.983 -0.667,-1.507 l -2.35,-2.386 c -0.561,-0.56 -0.876,-0.701 -1.333,-0.701 -0.561,0 -1.016,0.385 -1.227,1.367 -2.665,12.45 -6.699,27.882 -7.75,32.159 -0.246,0.947 -0.421,1.473 -0.982,1.473 -0.491,0 -0.667,-0.35 -0.667,-0.771 0,-0.316 0.071,-0.702 0.106,-0.983 0.63,-4.418 3.192,-20.515 5.961,-35.21 0.492,-2.524 1.439,-3.926 3.613,-3.926 0.981,0 1.929,0.385 2.805,1.227 1.438,1.438 1.859,1.824 3.578,3.506 1.226,1.193 2.068,1.684 4.172,1.684 h 5.191 c 1.227,0 1.894,0.315 2.489,0.877 0.562,0.526 0.913,1.262 0.913,2.314 0,1.088 -0.28,1.964 -0.667,3.051 -1.333,3.577 -5.611,15.676 -6.873,19.078 l 0.105,0.07 c 4.384,-3.331 10.766,-7.574 13.572,-7.574 0.877,0 1.402,0.385 1.402,1.752 0,6.454 -10.73,33.001 -35.244,69.543 M -83.326,-53.551 c -0.49,-0.596 -0.77,-1.263 -0.77,-2.419 v -31.844 h -0.175 c 0,0 -17.43,31.071 -18.273,32.51 -0.595,1.017 -1.262,1.717 -2.138,2.245 -0.878,0.49 -1.788,0.805 -3.543,0.805 h -5.751 c -1.334,0 -2.174,-0.455 -2.769,-1.157 -0.493,-0.596 -0.773,-1.263 -0.773,-2.42 v -45.134 c 0,-1.156 0.28,-1.825 0.773,-2.422 0.595,-0.7 1.435,-1.158 2.769,-1.158 h 3.262 c 1.333,0 2.174,0.458 2.771,1.158 0.49,0.597 0.77,1.266 0.77,2.422 v 32.614 h 0.176 c 0,0 18.096,-32.054 18.832,-33.247 1.018,-1.681 2.737,-2.947 5.191,-2.947 h 5.576 c 1.332,0 2.174,0.458 2.769,1.158 0.493,0.597 0.773,1.266 0.773,2.422 v 40.716 h 73.26 c 0.737,0 1.297,0.21 1.718,0.56 0.456,0.421 0.666,0.983 0.666,1.823 v 3.087 c 0,0.842 -0.21,1.403 -0.666,1.825 -0.421,0.35 -0.981,0.561 -1.718,0.561 l -79.959,-0.002 c -1.333,0 -2.174,-0.455 -2.771,-1.156"
         style="fill:#00529c;fill-opacity:1;fill-rule:nonzero;stroke:none"
         id="path98-5"
         inkscape:connector-curvature="0" />
    </g>
  </g>
</svg>
